# xmcd
#
# Track frame offsets:
#	150
#	15674
#	27025
#	49016
#	62285
#	82423
#	101485
#	120775
#	147163
#
# Disc length: 2167 seconds
#
# Revision: 0
# Processed by: cddbd v1.5.2PL0 Copyright (c) Steve Scherf et al.
# Submitted via: EasyCDDAExtractor 15.3.0.1
#
DISCID=66087509
DTITLE=Sheena and The Swamp Dogs - Close To The Bone
DYEAR=1996
DGENRE=Blues
TTITLE0=Spår 1Walking Blues
TTITLE1=Runnin' Wild
TTITLE2=Insomnia Cafe
TTITLE3=Close To The Bone
TTITLE4=Lay My Burdon Down
TTITLE5=Devil's Playground
TTITLE6=Start My Life
TTITLE7=Strong Man
TTITLE8=Come On In My Kitchen
EXTD=
EXTT0=
EXTT1=
EXTT2=
EXTT3=
EXTT4=
EXTT5=
EXTT6=
EXTT7=
EXTT8=
PLAYORDER=
